<svg xmlns="http://www.w3.org/2000/svg" width="700" height="350"  viewBox="0 0 700 350" version="1.1" color="red"><path d="" stroke="red" fill="red"  fill-rule="evenodd"/><path d="M 334.500 101.979 C 306.447 106.186, 275.628 121.815, 254.594 142.500 C 245.934 151.017, 238.218 161.869, 230.422 176.500 C 224.039 188.480, 218.305 197.122, 211.514 205 C 204.992 212.565, 197.012 228.178, 194.390 238.500 C 193.122 243.490, 192.609 249.377, 192.603 259 C 192.592 275.410, 194.760 285.037, 202.176 301.500 C 204.901 307.550, 207.344 312.985, 207.606 313.578 C 207.868 314.171, 203.757 317.473, 198.470 320.916 C 182.328 331.429, 165 346.923, 165 350.844 C 165 351.976, 166.248 352.075, 171.750 351.380 C 185.259 349.672, 196.218 351.617, 199.502 356.306 C 203.173 361.548, 199.814 369.014, 191.987 373.007 C 187.172 375.463, 176.278 377.210, 170.773 376.409 C 162.668 375.230, 150.434 371.859, 129.500 365.037 C 104.931 357.031, 96.820 355.509, 82.720 356.261 C 64.217 357.248, 63.232 358.823, 71.031 374.970 L 76.295 385.871 73.173 395.286 C 64.153 422.489, 64.327 456.159, 73.621 482.234 C 81.497 504.328, 96.347 527.152, 111.233 540.042 L 115.967 544.141 124.099 540.070 C 132.980 535.625, 134.767 535.229, 135.643 537.513 C 137.161 541.468, 130.473 544.866, 118.792 546.074 C 102.308 547.780, 100.924 549.604, 106.887 561.769 L 111.219 570.607 106.996 577.506 C 93.629 599.346, 83.302 625.981, 78.113 652 C 76.598 659.598, 72 694.740, 72 698.721 C 72 700.575, 75.599 696.506, 85.242 683.750 C 123.850 632.679, 167.944 593.900, 213 571.393 C 227.620 564.090, 237.017 560.527, 252.314 556.488 C 266.636 552.706, 272.088 552.196, 273.967 554.461 C 279.094 560.637, 272.961 582.388, 262.538 595 C 250.480 609.590, 233.926 620.616, 202.500 634.988 C 190.558 640.450, 185.113 645.678, 189.582 647.393 C 199.533 651.211, 229.931 640.674, 286 613.970 C 379.722 569.333, 433.374 548.397, 491 533.974 C 535.534 522.827, 564.606 519.415, 607.428 520.309 C 634.912 520.883, 644.724 521.821, 671.408 526.427 C 697.529 530.936, 705.794 529.789, 716.128 520.221 C 725.931 511.145, 726.463 508.734, 723.041 488.871 L 721.082 477.500 691.783 448.500 C 651.933 409.057, 631.957 392.182, 599.500 370.546 C 545.643 334.645, 492.703 312.634, 435.346 302.296 C 421.025 299.715, 419.190 299.620, 383.500 299.595 C 361.072 299.579, 342.956 300.026, 337.500 300.731 C 332.550 301.370, 324.127 302.456, 318.782 303.145 C 313.437 303.833, 308.747 304.081, 308.361 303.694 C 307.173 302.507, 327.269 242.732, 336.666 219.500 C 339.113 213.450, 344.989 200.738, 349.723 191.250 L 358.330 174 362.915 174.002 C 367.015 174.004, 379.168 175.653, 410.500 180.457 C 429.433 183.361, 447.055 184.343, 457.198 183.059 C 477.668 180.469, 477.877 180.475, 485.880 183.881 C 489.911 185.597, 493.740 187, 494.389 187 C 495.038 187, 496.396 185.600, 497.407 183.889 C 499.038 181.127, 499.630 180.841, 502.678 181.335 C 507.016 182.039, 521.537 189.368, 554.500 207.489 C 568.800 215.350, 586.318 224.885, 593.429 228.677 C 600.540 232.470, 606.543 236.129, 606.770 236.809 C 607.224 238.171, 595.683 243.814, 579.500 250.144 C 564.115 256.161, 552.483 258.228, 533.176 258.375 C 518.076 258.491, 516.746 258.354, 515.422 256.552 C 513.433 253.847, 514.468 251.116, 519.104 246.831 C 525 241.383, 530.246 239.978, 547.267 239.291 C 563.381 238.641, 567.383 237.453, 563.518 234.470 C 562.428 233.629, 557.928 231.742, 553.518 230.277 C 546.400 227.912, 543.929 227.609, 531.500 227.575 C 511.465 227.521, 502.662 230.482, 477.289 245.814 C 451.641 261.311, 434.199 269, 424.690 269 C 420.912 269, 420.142 268.657, 419.634 266.750 C 418.663 263.105, 423.393 254.900, 430.272 248.294 C 439.614 239.324, 447.506 235.812, 467 231.953 C 472.775 230.810, 478.175 229.199, 479 228.373 C 480.334 227.038, 480.238 226.656, 478.139 224.935 C 476.368 223.483, 474.230 223, 469.573 223 C 446.162 223, 420.028 235.440, 392 259.926 C 385.675 265.452, 378.670 270.879, 376.434 271.986 C 371.806 274.279, 364 274.737, 364 272.716 C 364 270.463, 374.341 261.124, 380.005 258.263 C 386.273 255.096, 387.560 252.536, 383.299 251.708 C 373.082 249.723, 348.993 262.038, 333.162 277.340 C 326.272 284, 318.439 294.839, 319.645 296.045 C 320.197 296.597, 325.300 296.084, 332.529 294.750 C 343.655 292.697, 347.466 292.541, 386.500 292.536 L 428.500 292.532 441.500 295.319 C 489.826 305.680, 541.781 326.813, 586.764 354.405 C 631.874 382.075, 693.915 431.179, 711.705 453.294 C 717.912 461.009, 727.100 477.878, 731.014 488.742 C 734.119 497.363, 733.445 501.999, 727.746 511.212 C 722.305 520.009, 721.602 522.074, 723.272 524.357 C 725.239 527.047, 731.167 527.950, 747 527.972 C 779.953 528.017, 801.005 520.916, 818.250 503.940 C 823.063 499.202, 827 494.577, 827 493.663 C 827 490.124, 820.480 491.746, 807.530 498.504 C 790.518 507.382, 782.470 509.369, 773.547 506.891 C 769.258 505.701, 762.584 499.802, 763.217 497.763 C 763.433 497.068, 765.339 495.643, 767.454 494.596 C 770.442 493.117, 775.448 492.416, 789.900 491.456 C 810.752 490.070, 814.148 489.115, 829.352 480.371 C 848.331 469.455, 873.938 451.659, 873.980 449.357 C 873.991 448.728, 873.288 447.941, 872.418 447.607 C 865.547 444.970, 844.474 452.181, 829.972 462.131 C 821.461 467.970, 812.138 471.631, 800.794 473.589 C 782.637 476.722, 773.453 472.476, 778.994 463.509 C 783.808 455.721, 786.705 454.613, 818 448.594 C 850.466 442.350, 867.030 435.810, 877.893 424.947 C 885.982 416.858, 894.805 399.405, 892.148 396.748 C 890.683 395.283, 885.746 398.738, 874 409.450 C 863.729 418.816, 851.049 427.718, 844.230 430.351 C 838.164 432.693, 830.916 432.508, 827.635 429.927 C 824.292 427.298, 824.330 426.190, 828.026 418.445 C 833.753 406.446, 845.927 395.944, 860.436 390.486 C 864.251 389.051, 877.526 385.238, 889.936 382.012 C 923.759 373.220, 937.275 367.729, 948.653 358.156 C 954.259 353.438, 963.163 341, 960.934 341 C 960.343 341, 957.979 342.291, 955.680 343.868 C 943.431 352.273, 928.857 357.598, 890.939 367.521 C 828.464 383.872, 812.298 391.964, 793.944 416.074 C 784.985 427.842, 775.180 436.327, 764.295 441.731 C 755.722 445.987, 754.162 446.423, 746.207 446.790 C 735.806 447.270, 728.091 444.884, 721.869 439.263 C 716.110 434.060, 717.061 428.598, 724.528 423.983 C 727.401 422.207, 730.384 421.812, 746.674 421.052 C 758.644 420.494, 766.971 419.640, 769.539 418.706 C 776.790 416.070, 787.378 410.319, 793.500 405.692 C 799.710 400.998, 817.683 382.969, 838.482 360.568 C 856.181 341.506, 870.359 329.951, 881.020 325.901 C 883.615 324.914, 890.860 323.360, 897.119 322.446 C 913.238 320.092, 915.358 318.469, 907.446 314.541 C 904.423 313.041, 901.512 312.595, 895 312.637 C 877.304 312.751, 862.465 321.485, 816.974 358.564 C 769.156 397.539, 753.553 406, 729.497 406 C 716.129 406, 705.485 401.821, 690.205 390.572 C 680.343 383.312, 680.844 378.732, 692.118 373.099 C 699.450 369.435, 701.407 369.334, 710 372.174 C 715.507 373.995, 719.516 374.391, 736.241 374.766 C 758.652 375.268, 765.366 374.446, 776.189 369.874 C 793.740 362.461, 808.987 351.451, 847.462 318.409 C 862.135 305.809, 878.045 292.678, 882.820 289.228 C 900.159 276.701, 923.028 267.010, 943.500 263.513 C 948.450 262.668, 954.686 261.254, 957.358 260.372 C 964.015 258.173, 978.450 248.332, 984.681 241.743 C 990.144 235.967, 996.727 224.024, 999.389 215.061 C 1001.043 209.492, 1001.588 199.977, 1000.250 200.029 C 999.837 200.045, 997.621 202.633, 995.324 205.779 C 981.947 224.103, 974.911 229.958, 953.500 240.580 C 942.631 245.971, 942.346 246.049, 929.562 247.107 C 896.649 249.831, 882.002 258.026, 824.504 305.887 C 786.147 337.814, 768.774 347.456, 747.294 348.739 C 732.793 349.605, 711.680 345.125, 706.676 340.120 C 704.739 338.183, 704.740 338.147, 706.761 335.577 C 709.709 331.829, 717.505 325.586, 722.865 322.680 C 728.729 319.502, 738.389 317.528, 758 315.503 C 776.832 313.559, 783.840 312.018, 792.527 307.913 C 806.669 301.232, 821.657 287.228, 820.284 281.978 C 820 280.890, 819.482 280.008, 819.133 280.017 C 818.785 280.026, 815.125 282.065, 811 284.548 C 797.577 292.629, 781.283 296.270, 753 297.509 C 745.025 297.859, 735.800 298.595, 732.500 299.145 C 721.932 300.906, 707.964 309.448, 680.338 331.042 C 658.927 347.778, 649.269 353.252, 637.876 355.110 C 629.873 356.415, 625.370 355.720, 618.121 352.061 C 610.993 348.463, 606 343.893, 606 340.967 C 606 337.957, 612.183 332.297, 616.843 331.042 C 618.910 330.486, 628.282 329.355, 637.669 328.529 C 657.479 326.787, 665.312 325.297, 677.120 321.024 C 699.496 312.927, 721.067 295.903, 754.778 259.733 C 772.823 240.372, 782.298 231.426, 787.707 228.643 C 789.470 227.736, 797.737 225.231, 806.076 223.077 C 824.801 218.241, 827.013 216.700, 817.790 214.917 C 811.659 213.731, 797.013 213.815, 790.799 215.071 C 775.531 218.157, 759.227 225.533, 739 238.506 C 731.575 243.268, 724.426 247.590, 723.113 248.109 C 721.269 248.839, 718.427 248.261, 710.613 245.564 C 697.589 241.070, 686.436 239.777, 671.786 241.062 C 651.688 242.826, 645.466 245.083, 597.500 268.014 C 550.733 290.372, 542.558 293.506, 524.678 295.937 C 504.390 298.694, 481.914 294.648, 477.299 287.407 C 476.138 285.586, 476.238 284.967, 478.077 282.629 C 479.239 281.153, 482.059 278.951, 484.345 277.738 C 488.109 275.738, 489.910 275.535, 503.500 275.571 C 511.750 275.593, 525.700 275.800, 534.500 276.031 C 548.899 276.410, 551.400 276.217, 559.494 274.100 C 572.109 270.801, 582.576 266.647, 609.277 254.344 C 622.050 248.458, 637.026 241.811, 642.558 239.571 C 654.932 234.562, 658.143 232.529, 656 231.059 C 654.025 229.705, 635.929 229.711, 628.586 231.069 C 625.406 231.657, 622.650 231.983, 622.461 231.795 C 622.273 231.606, 625.264 226.804, 629.108 221.123 C 632.953 215.442, 635.930 210.278, 635.724 209.647 C 634.591 206.176, 612.049 192.537, 573.500 171.998 C 544.481 156.537, 530.052 148.339, 527.500 145.864 C 525.517 143.940, 525.535 143.936, 529.674 145.391 C 531.970 146.198, 539.315 149.864, 545.995 153.538 C 559.900 161.185, 591.375 176.483, 601 180.272 C 612.685 184.872, 621.363 184.726, 628.263 179.812 C 631.647 177.403, 635 171.119, 635 167.188 C 635 162.863, 631.039 157.569, 627.498 157.162 C 625.079 156.884, 623.923 157.572, 620.952 161.056 C 617.628 164.954, 617.067 165.235, 613.814 164.625 C 608.694 163.664, 565.719 142.023, 543 128.965 C 520.313 115.926, 501.335 106.341, 496.351 105.406 C 491.543 104.504, 488.097 106.266, 487.348 110.010 C 487.015 111.677, 486.359 113.278, 485.891 113.567 C 485.423 113.856, 482.191 113.213, 478.709 112.137 C 470.506 109.604, 456.573 108.289, 424.500 107.020 C 394.200 105.822, 369.204 104.325, 356.500 102.947 C 341.046 101.271, 339.631 101.209, 334.500 101.979 M 323.466 112.389 C 319.048 113.107, 312.973 114.502, 309.966 115.488 C 284.117 123.962, 250.578 152.091, 239.006 175 C 236.542 179.878, 233.690 188, 234.441 188 C 234.595 188, 239.397 185.816, 245.111 183.147 C 268.772 172.096, 293.586 165.349, 321.104 162.485 C 324.737 162.107, 328.130 161.506, 328.645 161.149 C 329.160 160.792, 332.922 156, 337.004 150.500 C 341.086 145, 350.115 134.785, 357.068 127.801 L 369.710 115.101 365.605 113.394 C 360.168 111.133, 334.892 110.530, 323.466 112.389 M 400.547 113.045 C 390.087 114.685, 380.866 118.635, 369.500 126.343 C 361.422 131.821, 348.120 145.238, 344.062 152 L 340.761 157.500 343.617 155 C 345.187 153.625, 350.776 148.435, 356.036 143.466 C 367.419 132.715, 377.060 126, 381.114 126 C 386.920 126, 384.341 129.504, 373 137.024 C 361.056 144.943, 347.898 160.298, 350.675 163.075 C 352.245 164.645, 354.128 163.440, 364.013 154.549 C 378.985 141.081, 392.243 133.627, 406.064 130.908 C 411.676 129.804, 422.321 130.081, 433.664 131.626 C 437.409 132.137, 438.010 131.915, 439.647 129.416 C 440.837 127.600, 441.472 124.751, 441.483 121.183 L 441.500 115.726 437.500 114.270 C 432.605 112.488, 409.076 111.708, 400.547 113.045 M 496.105 119.678 C 491.380 132.024, 492.680 141.227, 499.723 145.292 C 504.214 147.885, 506.522 146.805, 510.692 140.160 C 514.861 133.516, 516.542 132, 519.739 132 C 522.912 132, 538.068 139.258, 564 153.195 C 590.386 167.377, 598.073 171.260, 598.640 170.693 C 599.957 169.377, 502.294 114, 498.655 114 C 498.448 114, 497.300 116.555, 496.105 119.678 M 469.102 123.537 C 463.072 130.404, 457 146.576, 457 155.767 C 457 158.687, 457.268 159.092, 458.750 158.417 C 459.712 157.979, 463.087 157.441, 466.250 157.222 C 469.413 157.002, 472 156.449, 472 155.993 C 472 155.537, 472.273 154.452, 472.607 153.582 C 473.005 152.544, 472.662 152, 471.607 152 C 469.188 152, 466 148.324, 466 145.535 C 466 141.379, 472.709 139.173, 473.710 143 C 474.371 145.528, 475.633 145.554, 476.965 143.066 C 478.839 139.564, 478.119 135.600, 474.898 131.693 C 472.338 128.586, 471.863 127.238, 472.175 123.965 C 472.383 121.784, 472.475 120, 472.380 120 C 472.285 120, 470.810 121.592, 469.102 123.537 M 498.974 133.049 C 496.443 137.778, 499.895 143.809, 503.750 141.393 C 505.728 140.153, 506.455 136.949, 505.564 133.398 C 504.790 130.317, 500.556 130.093, 498.974 133.049 M 420 141.268 C 420 142.829, 424.370 149.513, 427.890 153.334 C 432.333 158.159, 439.841 163.151, 444.779 164.564 L 449.500 165.915 446.500 163.708 C 440.758 159.482, 434.143 152.416, 433.636 149.966 C 433.355 148.610, 432.869 146.283, 432.555 144.795 C 432.116 142.713, 431.123 141.850, 428.242 141.050 C 423.194 139.649, 420 139.733, 420 141.268 M 390.135 145.552 C 383.394 148.613, 373.799 155.479, 368.203 161.244 L 363.906 165.672 378.203 167.959 C 403.294 171.974, 412.231 172.956, 423.860 172.978 L 435.220 173 429.272 168.621 C 426.001 166.213, 420.012 160.484, 415.964 155.890 C 411.915 151.296, 407.390 146.516, 405.907 145.268 C 402.374 142.296, 397.096 142.391, 390.135 145.552 M 481.996 158.739 C 479.207 165.953, 478.130 169.969, 478.729 170.924 C 479.220 171.707, 481.690 173.503, 484.218 174.914 C 488.801 177.472, 488.819 177.474, 490.987 175.512 C 492.969 173.718, 501 158.281, 501 156.264 C 501 155.572, 496.840 153.237, 486.828 148.309 C 486.459 148.127, 484.284 152.821, 481.996 158.739 M 621.038 173.043 C 619.134 174.670, 616.798 176, 615.847 176 C 614.896 176, 613.840 176.450, 613.500 177 C 612.598 178.460, 620.998 178.225, 624 176.706 C 625.615 175.889, 626.500 174.596, 626.500 173.054 C 626.500 169.656, 625.008 169.653, 621.038 173.043 M 308 171.665 C 278.424 176.306, 238.933 190.617, 231.107 199.531 C 223.121 208.627, 219.924 241.565, 224.624 266.338 C 226.491 276.181, 229.799 285.233, 231.342 284.721 C 231.979 284.509, 234.648 276.948, 237.274 267.918 C 245.853 238.411, 247.709 236.425, 266.500 236.628 C 275.389 236.725, 279.027 237.244, 285.457 239.333 C 289.834 240.755, 293.507 241.825, 293.621 241.710 C 293.735 241.594, 297.196 232.950, 301.312 222.500 C 305.428 212.050, 310.417 199.787, 312.398 195.250 C 314.379 190.713, 317.558 183.400, 319.462 179 L 322.924 171 316.712 171.136 C 313.295 171.211, 309.375 171.449, 308 171.665 M 330.734 173.284 C 324.332 183.053, 310.114 217.201, 298.998 249.500 C 295.590 259.400, 289.922 275.528, 286.401 285.340 C 282.881 295.152, 280.014 303.477, 280.032 303.840 C 280.049 304.203, 280.764 303.600, 281.620 302.500 C 285.009 298.145, 291.283 282.374, 303.502 247.500 C 312.508 221.794, 322.069 197.199, 327.992 184.500 C 333.442 172.816, 334.128 171, 333.090 171 C 332.617 171, 331.557 172.028, 330.734 173.284 M 343.029 173.969 C 334.409 183.197, 322.044 214.709, 304.383 272.458 C 291.059 316.025, 293.014 318.965, 307.523 277.179 C 324.179 229.215, 330.226 213.725, 341.599 189.902 C 346.220 180.224, 350 172.011, 350 171.652 C 350 169.853, 345.466 171.360, 343.029 173.969 M 616.935 210.070 C 610.722 216.721, 607.870 226.245, 611.656 227.698 C 613.700 228.483, 616.172 225.584, 620.110 217.782 C 623.395 211.275, 623.613 209.753, 621.509 208.007 C 620.276 206.984, 619.484 207.341, 616.935 210.070 M 214.263 213.362 C 209.936 219.110, 204.371 231.349, 201.787 240.802 C 198.754 251.897, 198.758 269.617, 201.796 280.285 C 204.494 289.757, 210.729 302.427, 214.879 306.870 C 219.104 311.393, 221.833 310.844, 224.795 304.877 L 227.090 300.255 224.136 291.730 C 217.955 273.893, 217.500 270.223, 217.500 238.250 C 217.500 222.162, 217.500 209.013, 217.500 209.031 C 217.500 209.048, 216.043 210.997, 214.263 213.362 M 892.500 223.590 C 878.707 235.711, 859.020 245.094, 835.151 250.923 C 822.349 254.049, 808.476 255.515, 778.001 256.961 L 758.502 257.887 756.200 260.693 C 752.173 265.602, 748.776 271.974, 749.366 273.512 C 750.931 277.590, 805.058 272.902, 832 266.356 C 860.082 259.532, 879.148 248.252, 892.081 230.809 C 900.022 220.100, 900.212 216.813, 892.500 223.590 M 261.586 243.861 C 260.646 245.381, 273.948 249.212, 278.648 248.774 L 282.500 248.416 278 246.293 C 272.680 243.784, 262.561 242.284, 261.586 243.861 M 244.720 270.163 C 239.284 285.529, 237.785 293.131, 239.928 294.455 C 240.438 294.771, 245.501 295.701, 251.178 296.523 C 256.855 297.344, 263.410 298.299, 265.744 298.643 L 269.987 299.270 272.428 293.885 C 274.660 288.963, 280.803 268.994, 282.448 261.316 C 283.037 258.566, 282.752 257.883, 280.362 256.316 C 278.111 254.840, 275.060 254.437, 264.047 254.163 L 250.500 253.825 244.720 270.163 M 260.481 260.394 C 256.110 262.298, 251 268.500, 251 271.900 C 251 273.457, 251.940 275.925, 253.088 277.385 C 261.427 287.986, 275.044 282.222, 273.740 268.643 C 272.958 260.510, 267.709 257.244, 260.481 260.394 M 648.500 263.034 C 639.735 264.820, 633.322 269.070, 634.553 272.278 C 635.615 275.044, 643.040 277.239, 653 277.730 C 660.635 278.106, 664.998 277.688, 675.221 275.599 C 688.503 272.886, 693 272.437, 693 273.826 C 693 276.685, 678.256 284.751, 667.847 287.586 C 664.387 288.529, 651.029 289.555, 630 290.493 C 596.190 292.002, 589.638 292.740, 582.664 295.825 C 578.226 297.788, 571 303.996, 571 305.845 C 571 310.693, 589.989 312.859, 617.814 311.185 C 652.597 309.092, 664.368 303.744, 694.750 276.226 C 699.288 272.117, 703 268.408, 703 267.986 C 703 266.683, 698.787 266.039, 676.826 263.984 C 653.800 261.829, 654.329 261.847, 648.500 263.034 M 235.442 302.906 C 236.758 305.036, 246.068 307.220, 255.500 307.612 C 267.782 308.123, 265.815 306.891, 249.720 303.993 C 237.434 301.781, 234.614 301.566, 235.442 302.906 M 234.509 319.324 C 232.380 324.421, 232.578 325.041, 236.250 324.754 C 239.220 324.522, 239.526 324.768, 239.803 327.610 C 240.217 331.866, 235.928 337, 231.958 337 C 229.500 337, 228.946 337.532, 228.053 340.750 C 226.610 345.946, 226.640 346.022, 229.908 345.368 C 234.800 344.390, 236.484 349.820, 233.336 356.422 C 230.618 362.121, 227.909 362.214, 225.653 356.685 L 224.363 353.523 222.681 360.217 C 221.757 363.899, 221 367.901, 221 369.111 C 221 371.178, 221.110 371.211, 222.829 369.655 C 226.175 366.626, 228 368.133, 228 373.927 C 228 377.289, 225.199 380.007, 220.808 380.905 C 216.709 381.744, 216.692 381.790, 204.857 422 C 197.252 447.842, 185.049 487.845, 183.199 493 C 182.780 494.168, 183.103 494.113, 184.659 492.750 C 187.424 490.329, 188.882 490.558, 190.037 493.597 C 191.295 496.905, 189.607 503.605, 187.190 504.898 C 184.477 506.350, 182.011 504.384, 181.926 500.700 C 181.864 498.042, 181.440 498.677, 179.426 504.445 C 176.512 512.786, 176.430 513.826, 178.857 511.630 C 180.517 510.127, 180.847 510.111, 181.984 511.480 C 183.406 513.194, 182.657 520.503, 180.834 522.700 C 179.138 524.743, 176.022 524.228, 175.084 521.750 C 174.358 519.832, 174.123 520.213, 173.491 524.325 C 172.590 530.197, 173.585 531.488, 178.325 530.599 C 182.833 529.753, 184.083 528.118, 184.391 522.661 C 184.685 517.440, 187.381 512.736, 189.813 513.198 C 191.034 513.429, 191.638 514.868, 192 518.408 L 192.500 523.298 198.250 516.067 C 201.412 512.090, 204 508.268, 204 507.573 C 204 506.878, 203.109 505.504, 202.021 504.519 C 200.109 502.789, 199.977 502.806, 198.176 505.030 C 194.219 509.918, 189.439 503.334, 192.802 497.629 C 194.767 494.296, 195.158 494.225, 204.242 495.561 C 211.758 496.666, 213.745 493.727, 210.327 486.560 C 208.295 482.298, 209.594 478.337, 213.193 477.827 C 214.719 477.611, 215.500 476.827, 215.500 475.512 C 215.500 473.890, 214.584 473.394, 210.524 472.813 C 205.966 472.161, 203.824 470.743, 202.661 467.608 C 202.373 466.831, 201.855 466.873, 200.925 467.750 C 196.721 471.716, 193.756 465.919, 196.194 458.500 C 197.256 455.270, 197.983 454.500, 199.975 454.500 C 201.521 454.500, 202.852 455.325, 203.544 456.712 C 204.555 458.740, 204.780 458.791, 206.246 457.326 C 208.446 455.126, 210.677 456.254, 211.496 459.980 C 211.972 462.149, 212.532 462.819, 213.340 462.186 C 213.978 461.685, 215.630 461.007, 217.010 460.679 C 219.804 460.015, 223.473 454.674, 222.635 452.490 C 222.338 451.716, 219.636 450.369, 216.631 449.495 C 213.626 448.622, 210.660 447.296, 210.041 446.549 C 208.598 444.811, 209.638 440.638, 212.060 438.446 C 213.806 436.866, 214.185 436.860, 217.352 438.363 C 224.924 441.956, 227.096 440.429, 230.371 429.211 L 231.916 423.921 229.323 425.961 C 227.439 427.443, 225.251 428, 221.315 428 C 211.935 428, 208.407 424.800, 209.176 416.989 C 209.620 412.481, 212.118 411.048, 215.770 413.205 C 217.320 414.121, 221.606 415.395, 225.294 416.038 C 231.547 417.126, 232.006 417.384, 232.091 419.853 C 232.156 421.740, 232.690 420.885, 233.951 416.877 C 237.222 406.476, 237.309 405.790, 235.184 407.117 C 232.731 408.649, 226.766 407.504, 224.573 405.081 C 222.556 402.852, 222.198 397.671, 223.918 395.599 C 225.859 393.261, 230.429 392.734, 234.396 394.392 C 237.263 395.590, 238.021 396.471, 238.105 398.699 C 238.200 401.243, 238.331 401.133, 239.528 397.500 C 240.253 395.300, 240.881 391.576, 240.923 389.225 C 240.991 385.461, 240.675 384.827, 238.280 383.916 C 236.783 383.347, 234.808 383.078, 233.890 383.318 C 229.564 384.450, 228.397 379.430, 231.679 373.810 C 233.730 370.298, 237 368.797, 237 371.368 C 237 373.774, 238.728 374.221, 242.756 372.859 C 247.328 371.313, 249 369.457, 249 365.931 C 249 361.994, 246.908 360.741, 241.651 361.530 C 237.704 362.122, 237.040 361.942, 236.004 360.007 C 233.764 355.822, 237.200 349, 241.548 349 C 243.201 349, 244.177 349.980, 245.283 352.750 L 246.781 356.500 251.890 351.393 C 256.927 346.358, 258.599 342, 255.493 342 C 254.665 342, 253.015 340.882, 251.827 339.516 C 250.221 337.668, 249.337 337.305, 248.381 338.098 C 244.521 341.302, 240.234 334.727, 242.566 329.180 C 244.152 325.408, 247.680 324.883, 250.500 328 C 252.989 330.751, 257.148 330.536, 259.991 327.510 C 265.067 322.107, 258.240 317.668, 242.759 316.305 L 236.018 315.711 234.509 319.324 M 359.301 321.497 C 346.122 323.504, 331.183 327.464, 321.167 331.605 C 292.748 343.356, 269.349 370.517, 260.816 401.659 C 257.755 412.832, 257.734 432.266, 260.771 443.500 C 266.646 465.236, 276.752 482.760, 291.660 497.062 C 308.697 513.406, 322.472 520.457, 347.041 525.411 C 376.904 531.431, 399.799 530.001, 437 519.789 C 468.347 511.184, 500.295 504.886, 530.500 501.359 C 550.800 498.989, 619.455 498.750, 637.500 500.988 C 644.100 501.806, 656.475 502.477, 665 502.478 C 682.248 502.480, 689.447 501.019, 694.933 496.403 C 699.159 492.847, 699.193 486.696, 695.033 478.410 C 689.345 467.079, 684.937 462.798, 642 426.911 C 569.670 366.456, 511.204 338.197, 429 323.962 C 413.012 321.193, 407.649 320.713, 389.500 320.427 C 374.985 320.198, 365.659 320.529, 359.301 321.497 M 381.578 338.542 C 370.929 340.556, 365.598 343.518, 365.195 347.647 C 364.958 350.078, 365.508 351.254, 367.680 352.963 C 370.959 355.542, 373.892 355.316, 389 351.319 C 402.109 347.850, 427.047 346.970, 441 349.484 C 456.645 352.302, 458.419 352.405, 459.927 350.588 C 463.094 346.772, 454.362 342.783, 435.500 339.429 C 422.538 337.124, 391.753 336.618, 381.578 338.542 M 324.500 356.453 C 310.667 363.211, 298.343 375.952, 290.741 391.354 C 285.239 402.503, 283.928 408.103, 283.333 423 C 282.452 445.080, 285.946 456.524, 297.263 468.622 C 307.516 479.583, 327.713 491.522, 346.745 497.873 C 351.830 499.570, 362.855 502.383, 371.245 504.124 L 386.500 507.290 414.500 506.671 C 449.553 505.897, 471.072 503.993, 501 499.018 C 579.663 485.942, 596.046 484.729, 627.796 489.636 C 641.098 491.691, 645.365 492.035, 646.273 491.127 C 649.046 488.354, 641.801 483.557, 629.858 480.257 C 624.483 478.772, 619.403 478.515, 597 478.595 C 568.885 478.695, 551.891 479.963, 511 485.009 C 466.659 490.482, 454.337 491.368, 422 491.415 C 388.028 491.464, 381.903 490.772, 359.500 484.351 C 337.982 478.183, 324.686 471.427, 314.865 461.668 C 299.893 446.791, 295.414 420.534, 304.770 402.500 C 307.085 398.039, 314.790 390.261, 329 378.041 C 338.468 369.900, 344 363.240, 344 359.984 C 344 359.041, 343.067 357.084, 341.927 355.635 C 338.933 351.829, 333.438 352.087, 324.500 356.453 M 79 365.841 C 79 366.473, 84.701 377.230, 91.669 389.745 C 98.637 402.260, 108.087 420.289, 112.670 429.809 C 117.252 439.328, 121.415 446.862, 121.920 446.550 C 123.961 445.288, 125.251 434.420, 125.725 414.500 C 126.119 397.901, 125.885 391.557, 124.609 384.231 C 122.311 371.042, 121.677 370.333, 109.601 367.451 C 101.290 365.468, 79 364.295, 79 365.841 M 137.966 377.250 C 137.947 377.387, 137.525 387.175, 137.027 399 C 136.530 410.825, 135.179 430.973, 134.025 443.773 C 130.884 478.612, 132.237 478.319, 144.525 441.500 C 153.826 413.633, 156.979 394.671, 153.641 386.682 C 152.651 384.315, 150.638 382.553, 146.251 380.214 C 141.010 377.421, 138.085 376.374, 137.966 377.250 M 216.128 392.564 C 213.295 396.167, 212.319 401.747, 214.195 403.623 C 217.206 406.634, 221 402.147, 221 395.575 C 221 390.645, 218.738 389.246, 216.128 392.564 M 80.488 403.377 C 77.542 407.874, 76.790 412.543, 76.275 429.547 C 75.705 448.351, 76.715 459.012, 80.488 474 C 85.039 492.083, 92.223 506.179, 101.731 515.688 C 106.011 519.968, 107.726 521.052, 109.830 520.809 C 112.075 520.549, 112.807 519.624, 114.430 515 C 117.101 507.392, 117.244 484.180, 114.695 472 C 111.001 454.343, 103.073 432.119, 93.949 413.838 C 87.576 401.069, 83.882 398.198, 80.488 403.377 M 167.140 408.739 C 166.612 409.726, 164.351 416.150, 162.116 423.016 C 159.881 429.882, 153.781 446.504, 148.562 459.953 C 143.342 473.402, 139.224 484.557, 139.410 484.743 C 139.596 484.929, 142.549 482.026, 145.972 478.291 C 160.446 462.499, 167.730 450.292, 175.652 428.551 L 180.006 416.602 177.033 413.534 C 175.398 411.847, 172.719 409.674, 171.080 408.706 C 168.228 407.022, 168.058 407.023, 167.140 408.739 M 82.045 410.762 C 80.266 412.203, 79.695 413.935, 79.275 419.162 C 78.710 426.205, 78.354 425.450, 84.948 431.198 C 88.678 434.450, 97.475 466.597, 100.080 486.500 C 100.728 491.450, 100.994 499.252, 100.672 503.838 C 100.118 511.708, 100.220 512.311, 102.497 514.588 C 107.346 519.437, 110.883 516.926, 112.901 507.201 C 114.438 499.789, 114.270 489.422, 112.472 480.815 C 110.339 470.607, 102.589 444.850, 97.250 430.226 C 92.595 417.476, 89.973 412.669, 86.394 410.326 C 84.557 409.123, 84.001 409.179, 82.045 410.762 M 203.634 435.852 C 201.145 438.602, 200.816 447.289, 203.183 447.775 C 206.281 448.411, 209.070 438.846, 206.722 435.635 C 205.495 433.957, 205.339 433.968, 203.634 435.852 M 179.249 447.750 C 166.810 462.201, 143.014 496.115, 138.025 506.500 C 132.246 518.528, 132.953 519.415, 143.095 512.861 C 157.267 503.703, 166.398 493.600, 174.207 478.436 C 180.546 466.128, 187.832 442, 185.210 442 C 184.653 442, 181.971 444.587, 179.249 447.750 M 191.655 473.829 C 189.054 476.703, 189.685 484, 192.534 484 C 194.418 484, 198 479.128, 198 476.565 C 198 472.258, 194.458 470.731, 191.655 473.829 M 199.989 477.250 C 196.801 482.479, 197.552 488, 201.452 488 C 204.761 488, 207 484.922, 207 480.371 C 207 473.552, 203.259 471.887, 199.989 477.250 M 246.037 503.174 C 239.061 505.175, 234 510.728, 234 516.379 C 234 517.820, 235.411 520.353, 237.368 522.429 C 241.428 526.733, 246.155 527.239, 250.486 523.832 C 256.281 519.274, 257.928 508.837, 253.545 504.455 C 250.839 501.748, 250.945 501.766, 246.037 503.174 M 311.218 545.610 C 306.435 548.045, 303.699 552.454, 303.277 558.408 C 302.820 564.849, 304.389 567.848, 309.769 570.816 C 314.655 573.511, 316.591 573.176, 321.617 568.763 C 326.236 564.707, 328 561.061, 328 555.565 C 328 546.726, 319.236 541.527, 311.218 545.610 M 135.500 552.968 C 132.233 553.402, 131.543 553.867, 131.735 555.500 C 131.864 556.600, 132.486 566.050, 133.117 576.500 C 133.748 586.950, 134.687 595.950, 135.203 596.500 C 135.816 597.153, 136.819 596.671, 138.094 595.110 C 139.902 592.898, 139.930 592.542, 138.471 590.315 C 135.306 585.485, 135.349 571.509, 138.541 567.385 C 139.968 565.541, 140.033 565.542, 141.500 567.441 C 142.325 568.509, 143 570.421, 143 571.691 C 143 575.209, 144.927 574.513, 151.816 568.504 C 155.282 565.482, 159.215 562.733, 160.557 562.396 C 163.220 561.728, 166 562.440, 166 563.790 C 166 564.991, 161.592 570.607, 154 579.079 C 150.425 583.069, 148.031 586.145, 148.681 585.916 C 151.026 585.090, 165.917 572.796, 170.474 567.925 C 173.038 565.184, 174.992 562.212, 174.818 561.320 C 174.426 559.321, 169.240 557.439, 157.500 555.037 C 146.615 552.809, 140.805 552.263, 135.500 552.968 M 115.081 554.929 C 113.868 555.696, 113.908 556.457, 115.357 560.163 C 117.522 565.703, 124.192 575.592, 125.500 575.202 C 126.835 574.804, 126.305 567.737, 124.454 561.274 C 122.623 554.876, 119.019 552.437, 115.081 554.929 M 118.547 587 C 119.268 592.970, 122.386 601.246, 124.610 603.091 C 127.240 605.274, 126.222 596.957, 123.067 590.500 C 118.506 581.163, 117.774 580.597, 118.547 587" stroke="red" fill="red" fill-rule="evenodd"/></svg>